HIERARCHY
ROOT hip
{
  OFFSET 0 90.174 2.4664
  CHANNELS 6 Xposition Yposition Zposition Zrotation Xrotation Yrotation
  JOINT abdomen
  {
    OFFSET 0 -1.186 -1.5018
    CHANNELS 6 Xposition Yposition Zposition Zrotation Xrotation Yrotation
    JOINT abdomen2
    {
      OFFSET 0 9.964 0.2134
      CHANNELS 6 Xposition Yposition Zposition Zrotation Xrotation Yrotation
      JOINT chest
      {
        OFFSET 0 13.134 -3.2573
        CHANNELS 6 Xposition Yposition Zposition Zrotation Xrotation Yrotation
        JOINT neck
        {
          OFFSET 0 20.686 -1.6905
          CHANNELS 6 Xposition Yposition Zposition Zrotation Xrotation Yrotation
          JOINT head
          {
            OFFSET 0 7.238 -0.1237
            CHANNELS 6 Xposition Yposition Zposition Zrotation Xrotation Yrotation
            End Site
            {
              OFFSET 0 0 0
            }
          }
        }
        JOINT lCollar
        {
          OFFSET 1.7069 20.075 5.0056
          CHANNELS 6 Xposition Yposition Zposition Zrotation Xrotation Yrotation
          JOINT lShldr
          {
            OFFSET 13.6458 -0.047 -4.849
            CHANNELS 6 Xposition Yposition Zposition Zrotation Xrotation Yrotation
            JOINT lForeArm
            {
              OFFSET 28.3255 -0.9759 2.2888
              CHANNELS 6 Xposition Yposition Zposition Zrotation Xrotation Yrotation
              JOINT lHand
              {
                OFFSET 22.1583 -0.53 10.8316
                CHANNELS 6 Xposition Yposition Zposition Zrotation Xrotation Yrotation
                JOINT lThumb1
                {
                  OFFSET 0.786 0.112 2.5817
                  CHANNELS 6 Xposition Yposition Zposition Zrotation Xrotation Yrotation
                  JOINT lThumb2
                  {
                    OFFSET 0.3601 -0.878 4.2331
                    CHANNELS 6 Xposition Yposition Zposition Zrotation Xrotation Yrotation
                    JOINT lThumb2_End
                    {
                      OFFSET 1.8127 -1.216 2.2227
                      CHANNELS 6 Xposition Yposition Zposition Zrotation Xrotation Yrotation
                      End Site
                      {
                        OFFSET 0.0181 -0.0122 0.0222
                      }
                    }
                  }
                }
                JOINT lCarpal1
                {
                  OFFSET 0.9571 1.114 1.7695
                  CHANNELS 6 Xposition Yposition Zposition Zrotation Xrotation Yrotation
                  JOINT lIndex1
                  {
                    OFFSET 4.1246 0.487 4.1451
                    CHANNELS 6 Xposition Yposition Zposition Zrotation Xrotation Yrotation
                    JOINT lIndex2
                    {
                      OFFSET 3.4052 -1.454 2.7682
                      CHANNELS 6 Xposition Yposition Zposition Zrotation Xrotation Yrotation
                      JOINT lIndex2_End
                      {
                        OFFSET 1.4531 -1.795 1.2713
                        CHANNELS 6 Xposition Yposition Zposition Zrotation Xrotation Yrotation
                        End Site
                        {
                          OFFSET 0.0145 -0.0179 0.0127
                        }
                      }
                    }
                  }
                  JOINT lMid1
                  {
                    OFFSET 5.6954 0.21 2.1184
                    CHANNELS 6 Xposition Yposition Zposition Zrotation Xrotation Yrotation
                    JOINT lMid2
                    {
                      OFFSET 3.9766 -1.54 2.3863
                      CHANNELS 6 Xposition Yposition Zposition Zrotation Xrotation Yrotation
                      JOINT lMid2_End
                      {
                        OFFSET 1.4042 -1.926 1.125
                        CHANNELS 6 Xposition Yposition Zposition Zrotation Xrotation Yrotation
                        End Site
                        {
                          OFFSET 0.014 -0.0193 0.0113
                        }
                      }
                    }
                  }
                }
                JOINT lCarpal2
                {
                  OFFSET 2.0956 0.66 -0.3894
                  CHANNELS 6 Xposition Yposition Zposition Zrotation Xrotation Yrotation
                  JOINT lRing1
                  {
                    OFFSET 5.0395 -0.09 2.4971
                    CHANNELS 6 Xposition Yposition Zposition Zrotation Xrotation Yrotation
                    JOINT lRing2
                    {
                      OFFSET 3.7921 -1.552 1.4806
                      CHANNELS 6 Xposition Yposition Zposition Zrotation Xrotation Yrotation
                      JOINT lRing2_End
                      {
                        OFFSET 1.4655 -1.808 0.9609
                        CHANNELS 6 Xposition Yposition Zposition Zrotation Xrotation Yrotation
                        End Site
                        {
                          OFFSET 0.0147 -0.0181 0.0096
                        }
                      }
                    }
                  }
                  JOINT lPinky1
                  {
                    OFFSET 4.9141 -1.269 0.3591
                    CHANNELS 6 Xposition Yposition Zposition Zrotation Xrotation Yrotation
                    JOINT lPinky2
                    {
                      OFFSET 3.1477 -1.685 0.8462
                      CHANNELS 6 Xposition Yposition Zposition Zrotation Xrotation Yrotation
                      JOINT lPinky2_End
                      {
                        OFFSET 0.8055 -1.585 0.7955
                        CHANNELS 6 Xposition Yposition Zposition Zrotation Xrotation Yrotation
                        End Site
                        {
                          OFFSET 0.0081 -0.0158 0.008
                        }
                      }
                    }
                  }
                }
              }
            }
          }
        }
        JOINT rCollar
        {
          OFFSET -1.7069 20.075 5.0056
          CHANNELS 6 Xposition Yposition Zposition Zrotation Xrotation Yrotation
          JOINT rShldr
          {
            OFFSET -13.6458 -0.047 -4.849
            CHANNELS 6 Xposition Yposition Zposition Zrotation Xrotation Yrotation
            JOINT rForeArm
            {
              OFFSET -28.3255 -0.9759 2.2888
              CHANNELS 6 Xposition Yposition Zposition Zrotation Xrotation Yrotation
              JOINT rHand
              {
                OFFSET -22.1583 -0.53 10.8316
                CHANNELS 6 Xposition Yposition Zposition Zrotation Xrotation Yrotation
                JOINT rThumb1
                {
                  OFFSET -0.786 0.112 2.5817
                  CHANNELS 6 Xposition Yposition Zposition Zrotation Xrotation Yrotation
                  JOINT rThumb2
                  {
                    OFFSET -0.3601 -0.878 4.2331
                    CHANNELS 6 Xposition Yposition Zposition Zrotation Xrotation Yrotation
                    JOINT rThumb2_End
                    {
                      OFFSET -1.8127 -1.216 2.2227
                      CHANNELS 6 Xposition Yposition Zposition Zrotation Xrotation Yrotation
                      End Site
                      {
                        OFFSET -0.0181 -0.0122 0.0222
                      }
                    }
                  }
                }
                JOINT rCarpal1
                {
                  OFFSET -0.9571 1.114 1.7695
                  CHANNELS 6 Xposition Yposition Zposition Zrotation Xrotation Yrotation
                  JOINT rIndex1
                  {
                    OFFSET -4.1246 0.487 4.1451
                    CHANNELS 6 Xposition Yposition Zposition Zrotation Xrotation Yrotation
                    JOINT rIndex2
                    {
                      OFFSET -3.4052 -1.454 2.7682
                      CHANNELS 6 Xposition Yposition Zposition Zrotation Xrotation Yrotation
                      JOINT rIndex2_End
                      {
                        OFFSET -1.4531 -1.795 1.2713
                        CHANNELS 6 Xposition Yposition Zposition Zrotation Xrotation Yrotation
                        End Site
                        {
                          OFFSET -0.0145 -0.018 0.0127
                        }
                      }
                    }
                  }
                  JOINT rMid1
                  {
                    OFFSET -5.6954 0.21 2.1184
                    CHANNELS 6 Xposition Yposition Zposition Zrotation Xrotation Yrotation
                    JOINT rMid2
                    {
                      OFFSET -3.9766 -1.54 2.3863
                      CHANNELS 6 Xposition Yposition Zposition Zrotation Xrotation Yrotation
                      JOINT rMid2_End
                      {
                        OFFSET -1.4042 -1.926 1.125
                        CHANNELS 6 Xposition Yposition Zposition Zrotation Xrotation Yrotation
                        End Site
                        {
                          OFFSET -0.014 -0.0193 0.0113
                        }
                      }
                    }
                  }
                }
                JOINT rCarpal2
                {
                  OFFSET -2.0956 0.66 -0.3894
                  CHANNELS 6 Xposition Yposition Zposition Zrotation Xrotation Yrotation
                  JOINT rRing1
                  {
                    OFFSET -5.0395 -0.09 2.4971
                    CHANNELS 6 Xposition Yposition Zposition Zrotation Xrotation Yrotation
                    JOINT rRing2
                    {
                      OFFSET -3.7921 -1.552 1.4806
                      CHANNELS 6 Xposition Yposition Zposition Zrotation Xrotation Yrotation
                      JOINT rRing2_End
                      {
                        OFFSET -1.4655 -1.808 0.9609
                        CHANNELS 6 Xposition Yposition Zposition Zrotation Xrotation Yrotation
                        End Site
                        {
                          OFFSET -0.0147 -0.0181 0.0096
                        }
                      }
                    }
                  }
                  JOINT rPinky1
                  {
                    OFFSET -4.9141 -1.269 0.3592
                    CHANNELS 6 Xposition Yposition Zposition Zrotation Xrotation Yrotation
                    JOINT rPinky2
                    {
                      OFFSET -3.1477 -1.685 0.8462
                      CHANNELS 6 Xposition Yposition Zposition Zrotation Xrotation Yrotation
                      JOINT rPinky2_End
                      {
                        OFFSET -0.8055 -1.585 0.7955
                        CHANNELS 6 Xposition Yposition Zposition Zrotation Xrotation Yrotation
                        End Site
                        {
                          OFFSET -0.0081 -0.0158 0.008
                        }
                      }
                    }
                  }
                }
              }
            }
          }
        }
      }
    }
  }
  JOINT lThigh
  {
    OFFSET 8.367 -8.2066 0.5982
    CHANNELS 6 Xposition Yposition Zposition Zrotation Xrotation Yrotation
    JOINT lShin
    {
      OFFSET 2.1923 -43.463 -0.4932
      CHANNELS 6 Xposition Yposition Zposition Zrotation Xrotation Yrotation
      JOINT lFoot
      {
        OFFSET 0.7333 -45.8593 -2.6451
        CHANNELS 6 Xposition Yposition Zposition Zrotation Xrotation Yrotation
        End Site
        {
          OFFSET 2.6618 -4.2699 12.3931
        }
      }
    }
  }
  JOINT rThigh
  {
    OFFSET -8.367 -8.2066 0.5982
    CHANNELS 6 Xposition Yposition Zposition Zrotation Xrotation Yrotation
    JOINT rShin
    {
      OFFSET -2.1923 -43.463 -0.4931
      CHANNELS 6 Xposition Yposition Zposition Zrotation Xrotation Yrotation
      JOINT rFoot
      {
        OFFSET -0.7333 -45.8593 -2.6451
        CHANNELS 6 Xposition Yposition Zposition Zrotation Xrotation Yrotation
        End Site
        {
          OFFSET -2.6618 -4.2699 12.3931
        }
      }
    }
  }
}
MOTION
Frames:	4
Frame Time:	0.0333333
0 90.174 2.4664 0 0 -0 0 -1.186 -1.5018 0 0 -0 0 9.964 0.2134 0 0 -0 0 13.134 -3.2573 0 0 -0 0 20.686 -1.6905 0 0 -0 0 7.238 -0.1237 0 0 -0 1.7069 20.075 5.0056 0 0 -0 13.6458 -0.047 -4.849 1.66051 0.0835086 5.75766 28.3255 -0.9759 2.2888 -0.0175111 0.895433 15.7816 22.1583 -0.53 10.8316 7.95139e-016 -1.98785e-016 -0 0.786 0.112 2.5817 5.46658e-016 -3.97569e-016 -0 0.3601 -0.878 4.2331 5.96354e-016 0 -0 1.8127 -1.216 2.2227 3.97569e-016 1.98785e-016 9.54166e-015 0.9571 1.114 1.7695 1.49089e-016 -3.97569e-016 -0 4.1246 0.487 4.1451 6.4605e-016 0 3.18055e-015 3.4052 -1.454 2.7682 5.96354e-016 0 3.18055e-015 1.4531 -1.795 1.2713 8.94531e-016 -1.98785e-016 6.36111e-015 5.6954 0.21 2.1184 6.4605e-016 0 3.18055e-015 3.9766 -1.54 2.3863 5.96354e-016 0 3.18055e-015 1.4042 -1.926 1.125 8.94531e-016 -1.98785e-016 6.36111e-015 2.0956 0.66 -0.3894 1.49089e-016 -3.97569e-016 -0 5.0395 -0.09 2.4971 6.4605e-016 0 3.18055e-015 3.7921 -1.552 1.4806 5.96354e-016 0 3.18055e-015 1.4655 -1.808 0.9609 8.94531e-016 -1.98785e-016 6.36111e-015 4.9141 -1.269 0.3591 6.4605e-016 0 3.18055e-015 3.1477 -1.685 0.8462 5.96354e-016 0 3.18055e-015 0.8055 -1.585 0.7955 8.94531e-016 -1.98785e-016 6.36111e-015 -1.7069 20.075 5.0056 0 0 -0 -13.6458 -0.047 -4.849 -1.4496 0.0636048 -5.0245 -28.3255 -0.9759 2.2888 -1.74811 1.20616 -16.8394 -22.1583 -0.53 10.8316 -1.19271e-015 1.98785e-016 -3.18055e-015 -0.786 0.112 2.5817 -3.97569e-016 1.98785e-016 -3.18055e-015 -0.3601 -0.878 4.2331 -2.98177e-016 1.98785e-016 -3.18055e-015 -1.8127 -1.216 2.2227 -2.98177e-016 3.97569e-016 -0 -0.9571 1.114 1.7695 4.96962e-016 0 -6.36111e-015 -4.1246 0.487 4.1451 -9.93923e-017 3.97569e-016 -0 -3.4052 -1.454 2.7682 -8.94531e-016 5.96354e-016 -0 -1.4531 -1.795 1.2713 -3.97569e-016 3.97569e-016 -0 -5.6954 0.21 2.1184 -9.93923e-017 3.97569e-016 -0 -3.9766 -1.54 2.3863 -8.94531e-016 5.96354e-016 -0 -1.4042 -1.926 1.125 -3.97569e-016 3.97569e-016 -0 -2.0956 0.66 -0.3894 4.96962e-016 0 -6.36111e-015 -5.0395 -0.09 2.4971 -9.93923e-017 3.97569e-016 -0 -3.7921 -1.552 1.4806 -8.94531e-016 5.96354e-016 -0 -1.4655 -1.808 0.9609 -3.97569e-016 3.97569e-016 -0 -4.9141 -1.269 0.3592 -9.93923e-017 3.97569e-016 -0 -3.1477 -1.685 0.8462 -8.94531e-016 5.96354e-016 -0 -0.8055 -1.585 0.7955 -3.97569e-016 3.97569e-016 -0 8.367 -8.2066 0.5982 -4.66115 -1.03232 0.120763 2.1923 -43.463 -0.4932 0.00990601 1.55097 0.177175 0.7333 -45.8593 -2.6451 4.65196 -0.54114 -0.255042 -8.367 -8.2066 0.5982 4.66115 -1.03222 -0.120763 -2.1923 -43.463 -0.4931 -0.00990459 1.5509 -0.177176 -0.7333 -45.8593 -2.6451 -4.65196 -0.541171 0.255041 
0.977388 86.7723 27.4567 0 29.9987 -0 0 -1.186 -1.5018 0.365713 -1.27889 -0.449707 0 9.964 0.2134 0.721642 -2.56062 -0.891571 0 13.134 -3.2573 0.721642 -2.56061 -0.891572 0 20.686 -1.6905 1.72741e-006 0.225634 -1.83844e-005 0 7.238 -0.1237 -5.0927e-007 0.215065 4.84725e-007 1.7069 20.075 5.0056 -23.9789 31.0833 -6.22374 13.6458 -0.047 -4.849 -79.9387 -53.755 -49.1856 28.3255 -0.9759 2.2888 -86.8894 3.60798 5.97424 22.1583 -0.53 10.8316 143.021 27.8302 -86.973 0.786 0.112 2.5817 4.63104e-007 -6.81067e-007 -2.17303e-007 0.3601 -0.878 4.2331 -1.59028e-014 0 1.27222e-014 1.8127 -1.216 2.2227 4.63104e-007 -6.81067e-007 -2.17303e-007 0.9571 1.114 1.7695 -3.18055e-015 3.18055e-015 -6.36111e-015 4.1246 0.487 4.1451 4.63104e-007 -6.81067e-007 -2.17303e-007 3.4052 -1.454 2.7682 -9.54166e-015 4.77083e-015 6.36111e-015 1.4531 -1.795 1.2713 4.63104e-007 -6.81067e-007 -2.17303e-007 5.6954 0.21 2.1184 4.63104e-007 -6.81067e-007 -2.17303e-007 3.9766 -1.54 2.3863 -9.54166e-015 4.77083e-015 6.36111e-015 1.4042 -1.926 1.125 4.63104e-007 -6.81067e-007 -2.17303e-007 2.0956 0.66 -0.3894 -3.18055e-015 3.18055e-015 -6.36111e-015 5.0395 -0.09 2.4971 4.63104e-007 -6.81067e-007 -2.17303e-007 3.7921 -1.552 1.4806 -9.54166e-015 4.77083e-015 6.36111e-015 1.4655 -1.808 0.9609 4.63104e-007 -6.81067e-007 -2.17303e-007 4.9141 -1.269 0.3591 4.63104e-007 -6.81067e-007 -2.17303e-007 3.1477 -1.685 0.8462 -9.54166e-015 4.77083e-015 6.36111e-015 0.8055 -1.585 0.7955 4.63104e-007 -6.81067e-007 -2.17303e-007 -1.7069 20.075 5.0056 23.0653 29.2006 6.51999 -13.6458 -0.047 -4.849 80.0395 -53.743 50.1052 -28.3255 -0.9759 2.2888 84.7272 2.72972 -6.11234 -22.1583 -0.53 10.8316 -144.878 28.4358 92.8693 -0.786 0.112 2.5817 4.61454e-007 6.85534e-007 -2.08168e-007 -0.3601 -0.878 4.2331 9.54166e-015 -1.59028e-015 -0 -1.8127 -1.216 2.2227 9.22908e-007 1.37107e-006 -4.16337e-007 -0.9571 1.114 1.7695 -3.18055e-015 -3.18055e-015 -3.18055e-015 -4.1246 0.487 4.1451 4.61454e-007 6.85534e-007 -2.08168e-007 -3.4052 -1.454 2.7682 0 4.77083e-015 -0 -1.4531 -1.795 1.2713 9.22908e-007 1.37107e-006 -4.16337e-007 -5.6954 0.21 2.1184 4.61454e-007 6.85534e-007 -2.08168e-007 -3.9766 -1.54 2.3863 0 4.77083e-015 -0 -1.4042 -1.926 1.125 9.22908e-007 1.37107e-006 -4.16337e-007 -2.0956 0.66 -0.3894 -3.18055e-015 -3.18055e-015 -3.18055e-015 -5.0395 -0.09 2.4971 4.61454e-007 6.85534e-007 -2.08168e-007 -3.7921 -1.552 1.4806 0 4.77083e-015 -0 -1.4655 -1.808 0.9609 9.22908e-007 1.37107e-006 -4.16337e-007 -4.9141 -1.269 0.3592 4.61454e-007 6.85534e-007 -2.08168e-007 -3.1477 -1.685 0.8462 0 4.77083e-015 -0 -0.8055 -1.585 0.7955 9.22908e-007 1.37107e-006 -4.16337e-007 8.367 -8.2066 0.5982 19.6506 -56.8766 17.1547 2.1923 -43.463 -0.4932 -4.17528 28.8729 5.68453 0.7333 -45.8593 -2.6451 5.03503 13.4044 19.2605 -8.367 -8.2066 0.5982 -20.2408 -56.1601 -14.678 -2.1923 -43.463 -0.4931 4.13201 27.3668 -5.60459 -0.7333 -45.8593 -2.6451 -2.49849 14.9822 -21.7459 
0.975912 86.8608 27.8939 0 29.0021 -0 0 -1.186 -1.5018 0.3623 -0.925475 -0.455359 0 9.964 0.2134 0.717371 -1.8538 -0.905033 0 13.134 -3.2573 0.717371 -1.85381 -0.905033 4.44089e-016 20.686 -1.6905 3.86642e-006 0.305159 -3.65065e-005 -4.44089e-016 7.238 -0.1237 2.48635e-007 0.290724 -1.33221e-007 1.7069 20.075 5.0056 -23.9789 31.0833 -6.22377 13.6458 -0.047 -4.849 -79.9388 -53.755 -49.1856 28.3255 -0.9759 2.2888 -86.8894 3.60797 5.97424 22.1583 -0.53 10.8316 142.823 27.2524 -87.0528 0.786 0.112 2.5817 -0 0 6.36111e-015 0.3601 -0.878 4.2331 3.1873e-006 1.16904e-006 1.82694e-008 1.8127 -1.216 2.2227 -3.1873e-006 -1.16904e-006 -1.82695e-008 0.9571 1.114 1.7695 -0 0 6.36111e-015 4.1246 0.487 4.1451 3.18055e-015 4.77083e-015 3.18055e-015 3.4052 -1.454 2.7682 3.1873e-006 1.16904e-006 1.82694e-008 1.4531 -1.795 1.2713 -3.1873e-006 -1.16904e-006 -1.82695e-008 5.6954 0.21 2.1184 3.18055e-015 4.77083e-015 3.18055e-015 3.9766 -1.54 2.3863 3.1873e-006 1.16904e-006 1.82694e-008 1.4042 -1.926 1.125 -3.1873e-006 -1.16904e-006 -1.82695e-008 2.0956 0.66 -0.3894 -0 0 6.36111e-015 5.0395 -0.09 2.4971 3.18055e-015 4.77083e-015 3.18055e-015 3.7921 -1.552 1.4806 3.1873e-006 1.16904e-006 1.82694e-008 1.4655 -1.808 0.9609 -3.1873e-006 -1.16904e-006 -1.82695e-008 4.9141 -1.269 0.3591 3.18055e-015 4.77083e-015 3.18055e-015 3.1477 -1.685 0.8462 3.1873e-006 1.16904e-006 1.82694e-008 0.8055 -1.585 0.7955 -3.1873e-006 -1.16904e-006 -1.82695e-008 -1.7069 20.075 5.0056 23.0653 29.2006 6.51998 -13.6458 -0.047 -4.849 80.0394 -53.743 50.1052 -28.3255 -0.9759 2.2888 84.7272 2.72973 -6.11235 -22.1583 -0.53 10.8316 -144.611 27.88 92.9048 -0.786 0.112 2.5817 1.11099e-006 9.13876e-008 1.79977e-006 -0.3601 -0.878 4.2331 -2.30452e-007 -3.42818e-007 1.04432e-007 -1.8127 -1.216 2.2227 -6.91355e-007 -1.02845e-006 3.13296e-007 -0.9571 1.114 1.7695 3.18055e-015 -4.77083e-015 -3.18055e-015 -4.1246 0.487 4.1451 1.11099e-006 9.13876e-008 1.79977e-006 -3.4052 -1.454 2.7682 -2.30452e-007 -3.42818e-007 1.04432e-007 -1.4531 -1.795 1.2713 -6.91355e-007 -1.02845e-006 3.13296e-007 -5.6954 0.21 2.1184 1.11099e-006 9.13876e-008 1.79977e-006 -3.9766 -1.54 2.3863 -2.30452e-007 -3.42818e-007 1.04432e-007 -1.4042 -1.926 1.125 -6.91355e-007 -1.02845e-006 3.13296e-007 -2.0956 0.66 -0.3894 3.18055e-015 -4.77083e-015 -3.18055e-015 -5.0395 -0.09 2.4971 1.11099e-006 9.13876e-008 1.79977e-006 -3.7921 -1.552 1.4806 -2.30452e-007 -3.42818e-007 1.04432e-007 -1.4655 -1.808 0.9609 -6.91355e-007 -1.02845e-006 3.13296e-007 -4.9141 -1.269 0.3592 1.11099e-006 9.13876e-008 1.79977e-006 -3.1477 -1.685 0.8462 -2.30452e-007 -3.42818e-007 1.04432e-007 -0.8055 -1.585 0.7955 -6.91355e-007 -1.02845e-006 3.13296e-007 8.367 -8.2066 0.5982 20.0863 -55.503 18.4152 2.1923 -43.463 -0.4932 -4.17586 28.8695 5.66393 0.7333 -45.8593 -2.6451 5.47463 12.9039 18.0292 -8.367 -8.2066 0.5982 -20.6964 -54.7946 -16.1075 -2.1923 -43.463 -0.4931 4.13293 27.3653 -5.58529 -0.7333 -45.8593 -2.6451 -3.04418 14.5208 -20.3357 
0.974401 86.947 28.3311 0 28.0043 -0 0 -1.186 -1.5018 0.35886 -0.571328 -0.460933 0 9.964 0.2134 0.713166 -1.1455 -0.918347 0 13.134 -3.2573 0.713167 -1.1455 -0.918348 -4.44089e-016 20.686 -1.6905 5.31428e-005 0.38471 -9.66803e-005 0 7.238 -0.1237 -1.03868e-007 0.366396 1.46509e-007 1.7069 20.075 5.0056 -23.9787 31.0832 -6.22386 13.6458 -0.047 -4.849 -79.9388 -53.7549 -49.1856 28.3255 -0.9759 2.2888 -86.8894 3.60798 5.97424 22.1583 -0.53 10.8316 142.625 26.6746 -87.1345 0.786 0.112 2.5817 -9.24006e-007 1.36261e-006 4.36916e-007 0.3601 -0.878 4.2331 -4.62003e-007 6.81305e-007 2.18458e-007 1.8127 -1.216 2.2227 3.18055e-015 -6.36111e-015 -0 0.9571 1.114 1.7695 -3.18055e-015 -3.18055e-015 -0 4.1246 0.487 4.1451 -9.24006e-007 1.36261e-006 4.36916e-007 3.4052 -1.454 2.7682 -4.62003e-007 6.81305e-007 2.18458e-007 1.4531 -1.795 1.2713 -3.18055e-015 -9.54166e-015 -0 5.6954 0.21 2.1184 -9.24006e-007 1.36261e-006 4.36916e-007 3.9766 -1.54 2.3863 -4.62003e-007 6.81305e-007 2.18458e-007 1.4042 -1.926 1.125 -3.18055e-015 -9.54166e-015 -0 2.0956 0.66 -0.3894 -3.18055e-015 -3.18055e-015 -0 5.0395 -0.09 2.4971 -9.24006e-007 1.36261e-006 4.36916e-007 3.7921 -1.552 1.4806 -4.62003e-007 6.81305e-007 2.18458e-007 1.4655 -1.808 0.9609 -3.18055e-015 -9.54166e-015 -0 4.9141 -1.269 0.3591 -9.24006e-007 1.36261e-006 4.36916e-007 3.1477 -1.685 0.8462 -4.62003e-007 6.81305e-007 2.18458e-007 0.8055 -1.585 0.7955 -3.18055e-015 -9.54166e-015 -0 -1.7069 20.075 5.0056 23.0654 29.2005 6.51994 -13.6458 -0.047 -4.849 80.0395 -53.743 50.1052 -28.3255 -0.9759 2.2888 84.7272 2.72972 -6.11235 -22.1583 -0.53 10.8316 -144.345 27.3241 92.9432 -0.786 0.112 2.5817 -9.20694e-007 -1.37148e-006 4.19128e-007 -0.3601 -0.878 4.2331 -6.36111e-015 -6.36111e-015 6.36111e-015 -1.8127 -1.216 2.2227 -9.20694e-007 -1.37148e-006 4.19128e-007 -0.9571 1.114 1.7695 0 0 -0 -4.1246 0.487 4.1451 -9.20694e-007 -1.37148e-006 4.19128e-007 -3.4052 -1.454 2.7682 -0 -3.18055e-015 -0 -1.4531 -1.795 1.2713 -9.20694e-007 -1.37148e-006 4.19128e-007 -5.6954 0.21 2.1184 -9.20694e-007 -1.37148e-006 4.19128e-007 -3.9766 -1.54 2.3863 -0 -3.18055e-015 -0 -1.4042 -1.926 1.125 -9.20694e-007 -1.37148e-006 4.19128e-007 -2.0956 0.66 -0.3894 0 0 -0 -5.0395 -0.09 2.4971 -9.20694e-007 -1.37148e-006 4.19128e-007 -3.7921 -1.552 1.4806 -0 -3.18055e-015 -0 -1.4655 -1.808 0.9609 -9.20694e-007 -1.37148e-006 4.19128e-007 -4.9141 -1.269 0.3592 -9.20694e-007 -1.37148e-006 4.19128e-007 -3.1477 -1.685 0.8462 -0 -3.18055e-015 -0 -0.8055 -1.585 0.7955 -9.20694e-007 -1.37148e-006 4.19128e-007 8.367 -8.2066 0.5982 20.4629 -54.122 19.6245 2.1923 -43.463 -0.4932 -4.1781 28.8731 5.64322 0.7333 -45.8593 -2.6451 5.90177 12.3897 16.8024 -8.367 -8.2066 0.5982 -21.0872 -53.4209 -17.4819 -2.1923 -43.463 -0.4931 4.13557 27.3709 -5.56555 -0.7333 -45.8593 -2.6451 -3.57671 14.0417 -18.9301 
